<svg width="200" height="102" viewBox="0 0 200 102" fill="none" xmlns="http://www.w3.org/2000/svg">
<path d="M5.29656 15.04C7.29656 15.12 9.85656 15.2 12.9766 15.28C16.0966 15.36 19.2166 15.4 22.3366 15.4C26.2566 15.4 29.9766 15.36 33.4966 15.28C37.0166 15.2 39.4966 15.16 40.9366 15.16C51.6566 15.16 59.6166 17.36 64.8166 21.76C70.0966 26.16 72.7366 31.84 72.7366 38.8C72.7366 41.68 72.2166 44.72 71.1766 47.92C70.1366 51.04 68.3366 53.96 65.7766 56.68C63.2166 59.32 59.6966 61.48 55.2166 63.16C50.8166 64.84 45.1766 65.68 38.2966 65.68H26.2966V63.28H37.0966C42.1366 63.28 45.9766 62.2 48.6166 60.04C51.3366 57.88 53.1366 55.04 54.0166 51.52C54.9766 48 55.4566 44.2 55.4566 40.12C55.4566 32.52 54.2166 26.84 51.7366 23.08C49.2566 19.32 44.9766 17.44 38.8966 17.44C35.6166 17.44 33.4566 18.12 32.4166 19.48C31.4566 20.84 30.9766 23.6 30.9766 27.76V86.8C30.9766 89.84 31.2966 92.12 31.9366 93.64C32.5766 95.16 33.8166 96.16 35.6566 96.64C37.4966 97.12 40.1366 97.4 43.5766 97.48V100C41.2566 99.84 38.2566 99.76 34.5766 99.76C30.8966 99.68 27.0966 99.64 23.1766 99.64C19.8166 99.64 16.5766 99.68 13.4566 99.76C10.3366 99.76 7.61656 99.84 5.29656 100V97.6C7.93656 97.44 9.89656 97.12 11.1766 96.64C12.5366 96.16 13.4166 95.2 13.8166 93.76C14.2966 92.32 14.5366 90.16 14.5366 87.28V27.76C14.5366 24.8 14.2966 22.64 13.8166 21.28C13.4166 19.84 12.5366 18.88 11.1766 18.4C9.89656 17.84 7.93656 17.52 5.29656 17.44V15.04ZM100.645 52.21C105.925 52.21 110.065 53.8 113.065 56.98C116.065 60.16 117.565 65.23 117.565 72.19H87.235L87.145 70.48H107.125C107.245 67.54 107.065 64.84 106.585 62.38C106.105 59.86 105.325 57.85 104.245 56.35C103.225 54.85 101.875 54.1 100.195 54.1C97.915 54.1 95.935 55.45 94.255 58.15C92.575 60.79 91.525 65.14 91.105 71.2L91.465 71.74C91.345 72.52 91.255 73.36 91.195 74.26C91.195 75.16 91.195 76.06 91.195 76.96C91.195 81.1 91.795 84.52 92.995 87.22C94.195 89.92 95.755 91.9 97.675 93.16C99.595 94.42 101.575 95.05 103.615 95.05C104.995 95.05 106.405 94.84 107.845 94.42C109.285 94 110.695 93.22 112.075 92.08C113.455 90.94 114.715 89.32 115.855 87.22L117.565 87.94C116.905 90.04 115.795 92.14 114.235 94.24C112.735 96.28 110.785 97.96 108.385 99.28C105.985 100.6 103.165 101.26 99.925 101.26C95.845 101.26 92.245 100.36 89.125 98.56C86.005 96.76 83.575 94.09 81.835 90.55C80.095 86.95 79.225 82.57 79.225 77.41C79.225 71.95 80.125 67.36 81.925 63.64C83.785 59.92 86.335 57.1 89.575 55.18C92.815 53.2 96.505 52.21 100.645 52.21ZM188.123 52.21C190.823 52.21 192.743 52.84 193.883 54.1C195.083 55.36 195.683 56.89 195.683 58.69C195.683 60.55 195.113 62.05 193.973 63.19C192.893 64.27 191.453 64.81 189.653 64.81C188.513 64.81 187.433 64.6 186.413 64.18C185.393 63.7 184.553 62.98 183.893 62.02C183.293 61.06 182.993 59.89 182.993 58.51C182.993 57.91 183.143 57.28 183.443 56.62C183.803 55.96 184.343 55.42 185.063 55C183.863 55.24 182.903 55.81 182.183 56.71C181.463 57.61 180.833 58.81 180.293 60.31C179.813 61.81 179.243 63.61 178.583 65.71C177.743 68.23 176.783 70.33 175.703 72.01C174.623 73.69 172.793 74.89 170.213 75.61L170.123 75.16C172.463 75.04 174.653 75.1 176.693 75.34C178.793 75.58 180.683 76.12 182.363 76.96C184.103 77.74 185.573 78.94 186.773 80.56C187.913 82.18 188.813 84.13 189.473 86.41C190.133 88.69 190.943 90.94 191.903 93.16C192.563 94.66 193.253 95.83 193.973 96.67C194.753 97.45 195.953 97.93 197.573 98.11V100C196.493 100.18 195.413 100.33 194.333 100.45C193.313 100.57 192.323 100.63 191.363 100.63C188.243 100.63 185.813 100 184.073 98.74C182.333 97.48 181.043 95.35 180.203 92.35C179.783 90.85 179.213 88.93 178.493 86.59C177.833 84.19 176.813 82.15 175.433 80.47C174.233 78.85 172.733 77.83 170.933 77.41C169.193 76.93 167.003 76.75 164.363 76.87V75.34C167.363 75.1 169.643 74.59 171.203 73.81C172.823 72.97 174.053 71.77 174.893 70.21C175.733 68.59 176.513 66.58 177.233 64.18C177.893 62.02 178.583 60.04 179.303 58.24C180.023 56.44 181.043 55 182.363 53.92C183.743 52.78 185.663 52.21 188.123 52.21ZM131.513 52.21C133.973 52.21 135.863 52.78 137.183 53.92C138.563 55 139.613 56.44 140.333 58.24C141.053 60.04 141.713 62.02 142.313 64.18C143.093 66.52 143.873 68.5 144.653 70.12C145.493 71.68 146.723 72.88 148.343 73.72C149.963 74.56 152.273 75.1 155.273 75.34V76.87C152.873 76.75 150.743 76.9 148.883 77.32C147.023 77.74 145.463 78.79 144.203 80.47C143.303 81.61 142.523 82.96 141.863 84.52C141.263 86.08 140.753 87.58 140.333 89.02C139.973 90.46 139.673 91.57 139.433 92.35C138.653 95.35 137.333 97.48 135.473 98.74C133.673 100 131.243 100.63 128.183 100.63C127.223 100.63 126.233 100.57 125.213 100.45C124.193 100.33 123.143 100.18 122.063 100V98.11C123.683 97.93 124.853 97.45 125.573 96.67C126.353 95.83 127.073 94.66 127.733 93.16C128.693 90.82 129.503 88.54 130.163 86.32C130.823 84.1 131.723 82.18 132.863 80.56C134.123 78.88 135.653 77.65 137.453 76.87C139.253 76.03 141.173 75.52 143.213 75.34C145.313 75.1 147.383 75.04 149.423 75.16V75.61C146.843 74.89 144.983 73.69 143.843 72.01C142.763 70.27 141.833 68.17 141.053 65.71C140.393 63.67 139.823 61.9 139.343 60.4C138.863 58.84 138.263 57.61 137.543 56.71C136.823 55.81 135.803 55.24 134.483 55C135.263 55.42 135.803 55.96 136.103 56.62C136.463 57.28 136.643 57.91 136.643 58.51C136.643 59.89 136.313 61.06 135.653 62.02C134.993 62.98 134.153 63.7 133.133 64.18C132.173 64.6 131.123 64.81 129.983 64.81C128.183 64.81 126.713 64.27 125.573 63.19C124.493 62.05 123.953 60.55 123.953 58.69C123.953 56.89 124.523 55.36 125.663 54.1C126.863 52.84 128.813 52.21 131.513 52.21ZM171.113 53.56V55.45C169.073 55.45 167.633 55.9 166.793 56.8C165.953 57.7 165.533 59.41 165.533 61.93V91.63C165.533 94.15 165.923 95.86 166.703 96.76C167.483 97.66 168.833 98.11 170.753 98.11V100C169.673 99.94 168.083 99.88 165.983 99.82C163.883 99.7 161.783 99.64 159.683 99.64C157.703 99.64 155.663 99.7 153.563 99.82C151.523 99.88 149.993 99.94 148.973 100V98.11C150.893 98.11 152.243 97.66 153.023 96.76C153.803 95.86 154.193 94.15 154.193 91.63V61.93C154.193 59.41 153.773 57.7 152.933 56.8C152.093 55.9 150.653 55.45 148.613 55.45V53.56C149.693 53.62 151.343 53.71 153.563 53.83C155.783 53.89 157.943 53.92 160.043 53.92C162.143 53.92 164.243 53.89 166.343 53.83C168.443 53.71 170.033 53.62 171.113 53.56Z" fill="white"/>
<path d="M104.474 16.36C104.367 17.4267 104.287 18.4533 104.234 19.44C104.207 20.4 104.194 21.1333 104.194 21.64C104.194 22.1733 104.207 22.68 104.234 23.16C104.261 23.6133 104.287 23.9867 104.314 24.28H103.394C103.154 22.5467 102.834 21.1733 102.434 20.16C102.034 19.12 101.541 18.3733 100.954 17.92C100.367 17.44 99.6474 17.2 98.7941 17.2C98.6341 17.2 98.4607 17.2 98.2741 17.2C98.0874 17.2 97.9141 17.2 97.7541 17.2C97.0074 17.2 96.4741 17.3867 96.1541 17.76C95.8607 18.1333 95.7141 18.8 95.7141 19.76V32.88C95.7141 34.1867 96.0607 35.0667 96.7541 35.52C97.4474 35.9467 98.4074 36.16 99.6341 36.16V37C98.9674 36.9733 98.0207 36.9467 96.7941 36.92C95.5941 36.8667 94.3274 36.84 92.9941 36.84C92.0074 36.84 91.0341 36.8667 90.0741 36.92C89.1407 36.9467 88.4341 36.9733 87.9541 37V36.16C88.9407 36.16 89.6341 35.96 90.0341 35.56C90.4607 35.16 90.6741 34.4 90.6741 33.28V20.12C90.6741 18.9733 90.4607 18.2 90.0341 17.8C89.6341 17.4 88.9407 17.2 87.9541 17.2V16.36C88.4341 16.3867 89.1674 16.4267 90.1541 16.48C91.1674 16.5067 92.1407 16.52 93.0741 16.52C94.0074 16.52 94.9407 16.4933 95.8741 16.44C96.8341 16.3867 97.6474 16.36 98.3141 16.36H104.474ZM116.747 15.76C118.587 15.76 120.214 16.1333 121.627 16.88C123.067 17.6 124.2 18.76 125.027 20.36C125.88 21.96 126.307 24.0667 126.307 26.68C126.307 29.2933 125.88 31.4 125.027 33C124.2 34.6 123.067 35.76 121.627 36.48C120.214 37.2 118.587 37.56 116.747 37.56C114.907 37.56 113.267 37.2 111.827 36.48C110.387 35.76 109.254 34.6 108.427 33C107.6 31.4 107.187 29.2933 107.187 26.68C107.187 24.0667 107.6 21.96 108.427 20.36C109.254 18.76 110.387 17.6 111.827 16.88C113.267 16.1333 114.907 15.76 116.747 15.76ZM116.747 16.56C115.494 16.56 114.467 17.36 113.667 18.96C112.894 20.5333 112.507 23.1067 112.507 26.68C112.507 30.2533 112.894 32.8267 113.667 34.4C114.467 35.9733 115.494 36.76 116.747 36.76C117.974 36.76 118.987 35.9733 119.787 34.4C120.587 32.8267 120.987 30.2533 120.987 26.68C120.987 23.1067 120.587 20.5333 119.787 18.96C118.987 17.36 117.974 16.56 116.747 16.56ZM136.451 15.92V40.36C136.451 41.56 136.771 42.36 137.411 42.76C138.077 43.1867 138.984 43.4 140.131 43.4V44.24C139.491 44.2133 138.584 44.1733 137.411 44.12C136.264 44.0933 135.037 44.08 133.731 44.08C132.824 44.08 131.917 44.0933 131.011 44.12C130.104 44.1733 129.411 44.2133 128.931 44.24V43.4C129.837 43.4 130.477 43.2133 130.851 42.84C131.224 42.4667 131.411 41.7733 131.411 40.76V20.72C131.411 19.52 131.224 18.64 130.851 18.08C130.477 17.4933 129.757 17.2 128.691 17.2V16.36C129.544 16.44 130.371 16.48 131.171 16.48C132.184 16.48 133.131 16.44 134.011 16.36C134.891 16.2533 135.704 16.1067 136.451 15.92ZM142.731 15.76C144.117 15.76 145.357 16.1467 146.451 16.92C147.544 17.6667 148.397 18.7733 149.011 20.24C149.651 21.7067 149.971 23.5467 149.971 25.76C149.971 27.52 149.771 29.1333 149.371 30.6C148.971 32.04 148.371 33.28 147.571 34.32C146.797 35.36 145.837 36.16 144.691 36.72C143.544 37.28 142.237 37.56 140.771 37.56C139.651 37.56 138.651 37.3467 137.771 36.92C136.891 36.4933 136.251 35.92 135.851 35.2L136.251 34.64C136.571 35.2 137.011 35.6533 137.571 36C138.131 36.3467 138.797 36.52 139.571 36.52C140.851 36.52 141.864 36.1067 142.611 35.28C143.357 34.4267 143.877 33.24 144.171 31.72C144.491 30.2 144.651 28.44 144.651 26.44C144.651 24.2267 144.504 22.4533 144.211 21.12C143.917 19.7867 143.477 18.8267 142.891 18.24C142.304 17.6267 141.611 17.32 140.811 17.32C139.717 17.32 138.731 17.76 137.851 18.64C136.997 19.4933 136.477 20.7467 136.291 22.4L136.011 21.28C136.437 19.52 137.251 18.16 138.451 17.2C139.651 16.24 141.077 15.76 142.731 15.76ZM162.802 15.76C164.642 15.76 166.268 16.1333 167.682 16.88C169.122 17.6 170.255 18.76 171.082 20.36C171.935 21.96 172.362 24.0667 172.362 26.68C172.362 29.2933 171.935 31.4 171.082 33C170.255 34.6 169.122 35.76 167.682 36.48C166.268 37.2 164.642 37.56 162.802 37.56C160.962 37.56 159.322 37.2 157.882 36.48C156.442 35.76 155.308 34.6 154.482 33C153.655 31.4 153.242 29.2933 153.242 26.68C153.242 24.0667 153.655 21.96 154.482 20.36C155.308 18.76 156.442 17.6 157.882 16.88C159.322 16.1333 160.962 15.76 162.802 15.76ZM162.802 16.56C161.548 16.56 160.522 17.36 159.722 18.96C158.948 20.5333 158.562 23.1067 158.562 26.68C158.562 30.2533 158.948 32.8267 159.722 34.4C160.522 35.9733 161.548 36.76 162.802 36.76C164.028 36.76 165.042 35.9733 165.842 34.4C166.642 32.8267 167.042 30.2533 167.042 26.68C167.042 23.1067 166.642 20.5333 165.842 18.96C165.042 17.36 164.028 16.56 162.802 16.56ZM191.604 16.36V17.2C190.671 17.2 190.004 17.4 189.604 17.8C189.231 18.2 189.044 18.96 189.044 20.08V33.28C189.044 34.4 189.258 35.16 189.684 35.56C190.138 35.96 191.018 36.16 192.324 36.16C192.218 37.0933 192.138 37.9867 192.084 38.84C192.058 39.6933 192.044 40.3467 192.044 40.8C192.044 41.28 192.058 41.7333 192.084 42.16C192.111 42.6133 192.138 42.9867 192.164 43.28H191.244C191.031 41.7067 190.751 40.4533 190.404 39.52C190.058 38.5867 189.551 37.92 188.884 37.52C188.218 37.12 187.311 36.92 186.164 36.92C185.551 36.92 184.964 36.92 184.404 36.92C183.844 36.92 183.258 36.9333 182.644 36.96C182.058 36.96 181.378 36.9733 180.604 37C179.858 37 178.964 37 177.924 37C176.778 37 175.871 37.1867 175.204 37.56C174.538 37.96 174.018 38.6133 173.644 39.52C173.298 40.4533 173.031 41.7067 172.844 43.28H171.924C171.978 42.9867 172.004 42.6133 172.004 42.16C172.031 41.7333 172.044 41.28 172.044 40.8C172.044 40.3467 172.018 39.6933 171.964 38.84C171.938 37.9867 171.871 37.0933 171.764 36.16H181.364C182.324 36.16 183.004 35.96 183.404 35.56C183.804 35.16 184.004 34.4 184.004 33.28V20.08C184.004 18.96 183.831 18.2 183.484 17.8C183.138 17.4 182.538 17.2 181.684 17.2H181.324C180.418 17.2 179.831 17.4133 179.564 17.84C179.324 18.24 179.151 18.9867 179.044 20.08C178.911 21.6267 178.764 23.2 178.604 24.8C178.444 26.3733 178.218 27.8933 177.924 29.36C177.658 30.8267 177.258 32.16 176.724 33.36C176.351 34.2667 175.858 35.04 175.244 35.68C174.631 36.2933 173.858 36.64 172.924 36.72L172.524 36.16C173.378 36.16 174.098 35.8667 174.684 35.28C175.271 34.6667 175.724 33.96 176.044 33.16C176.524 32.0133 176.898 30.7333 177.164 29.32C177.458 27.88 177.684 26.3733 177.844 24.8C178.031 23.2267 178.178 21.6533 178.284 20.08C178.364 18.96 178.124 18.2 177.564 17.8C177.031 17.4 176.218 17.2 175.124 17.2V16.36C175.338 16.3867 175.671 16.4267 176.124 16.48C176.604 16.5067 177.151 16.52 177.764 16.52C178.378 16.52 178.991 16.4933 179.604 16.44C180.244 16.3867 180.991 16.36 181.844 16.36C182.804 16.36 183.631 16.3867 184.324 16.44C185.044 16.4933 185.818 16.52 186.644 16.52C187.551 16.52 188.484 16.5067 189.444 16.48C190.404 16.4267 191.124 16.3867 191.604 16.36Z" fill="white"/>
</svg>
